<?xml version="1.0" encoding="UTF-8"?>
<svg version="1.1" xmlns="http://www.w3.org/2000/svg" width="512" height="512">
<path d="M0 0 C168.96 0 337.92 0 512 0 C512 168.96 512 337.92 512 512 C343.04 512 174.08 512 0 512 C0 343.04 0 174.08 0 0 Z " fill="#000000" transform="translate(0,0)"/>
<path d="M0 0 C72.7555778 0 72.7555778 0 84.9375 11.375 C92.38788312 19.43284841 93.48321981 28.25447935 93.265625 38.8203125 C92.80602367 48.73778831 89.269034 55.79915157 82.3828125 62.8671875 C78.29553445 66.52563637 74.207558 69.26414733 69 71 C70.35734168 75.25172606 71.93649392 79.32090371 73.72265625 83.41015625 C74.11520599 84.31201912 74.11520599 84.31201912 74.51568604 85.23210144 C75.07418924 86.51454718 75.63381745 87.79650348 76.19448853 89.07800293 C77.07065802 91.08115133 77.94342268 93.08575059 78.81518555 95.09082031 C79.98588593 97.78312115 81.15744553 100.47504406 82.33007812 103.16650391 C84.66436002 108.5247419 86.99473901 113.88459124 89.3125 119.25 C89.88013062 120.55142944 89.88013062 120.55142944 90.45922852 121.87915039 C90.79881592 122.66668701 91.13840332 123.45422363 91.48828125 124.265625 C91.78259033 124.94399414 92.07689941 125.62236328 92.38012695 126.32128906 C93 128 93 128 93 130 C87.06 130 81.12 130 75 130 C74.26136719 128.20820313 73.52273437 126.41640625 72.76171875 124.5703125 C65.92654207 108.00963641 59.00183209 91.49115717 52 75 C34.675 74.505 34.675 74.505 17 74 C17 92.48 17 110.96 17 130 C11.39 130 5.78 130 0 130 C0 87.1 0 44.2 0 0 Z " fill="#F9F9F9" transform="translate(143,191)"/>
<path d="M0 0 C5.61 0 11.22 0 17 0 C17 18.48 17 36.96 17 56 C40.1 56 63.2 56 87 56 C87 37.52 87 19.04 87 0 C92.61 0 98.22 0 104 0 C104 42.9 104 85.8 104 130 C98.39 130 92.78 130 87 130 C87 110.2 87 90.4 87 70 C63.9 70 40.8 70 17 70 C17 89.8 17 109.6 17 130 C11.39 130 5.78 130 0 130 C0 87.1 0 44.2 0 0 Z " fill="#FBFBFB" transform="translate(265,191)"/>
<path d="M0 0 C10.085625 -0.1546875 10.085625 -0.1546875 20.375 -0.3125 C23.52748291 -0.38078003 23.52748291 -0.38078003 26.74365234 -0.45043945 C45.9301732 -0.69355994 45.9301732 -0.69355994 53.61474609 6.51464844 C58.81909099 12.32986639 59.45361702 17.0624186 59.30859375 24.671875 C58.71049358 31.1222718 56.51337054 35.90370686 51.8125 40.375 C45.0751072 45.41115843 37.80729256 46.45140446 29.58984375 46.29296875 C28.83223755 46.28994751 28.07463135 46.28692627 27.29406738 46.28381348 C24.50840305 46.26831196 21.72293542 46.22643064 18.9375 46.1875 C9.5634375 46.0946875 9.5634375 46.0946875 0 46 C0 30.82 0 15.64 0 0 Z " fill="#010101" transform="translate(160,205)"/>
<path d="M0 0 C0 4.95 0 9.9 0 15 C-7.72331449 18.15653723 -15.44944536 21.30604766 -23.17919922 24.44677734 C-25.68155044 25.46357876 -28.18302185 26.48245967 -30.68408203 27.50244141 C-34.12061537 28.90271945 -37.55989838 30.29601535 -41 31.6875 C-42.06081787 32.1211084 -43.12163574 32.5547168 -44.21459961 33.00146484 C-45.19565674 33.39672363 -46.17671387 33.79198242 -47.1875 34.19921875 C-48.04730469 34.54815186 -48.90710938 34.89708496 -49.79296875 35.2565918 C-52 36 -52 36 -55 36 C-55 36.66 -55 37.32 -55 38 C-54.39187469 38.17337387 -53.78374939 38.34674774 -53.15719604 38.52537537 C-47.04189384 40.30862316 -41.11951133 42.38743382 -35.1953125 44.72265625 C-34.30891083 45.06880478 -33.42250916 45.41495331 -32.50924683 45.77159119 C-30.65484963 46.49666333 -28.80118716 47.22361721 -26.94824219 47.95239258 C-24.11307842 49.0671876 -21.27549939 50.1756494 -18.4375 51.28320312 C-16.62746028 51.99182008 -14.81755941 52.70079183 -13.0078125 53.41015625 C-12.16300323 53.74040298 -11.31819397 54.07064972 -10.44778442 54.41090393 C-9.65951263 54.72140182 -8.87124084 55.03189972 -8.05908203 55.35180664 C-7.36976593 55.62255508 -6.68044983 55.89330353 -5.97024536 56.17225647 C-3.94011233 57.02516013 -1.96954508 58.01522746 0 59 C0 63.95 0 68.9 0 74 C-6.48816976 72.11954197 -12.78658603 70.04108776 -19.06640625 67.55859375 C-19.89579712 67.234319 -20.72518799 66.91004425 -21.57971191 66.57594299 C-24.2421967 65.53371256 -26.90239017 64.48577543 -29.5625 63.4375 C-31.39695452 62.71784523 -33.23150916 61.99844561 -35.06616211 61.27929688 C-48.73576346 55.91538246 -62.38237669 50.49459874 -76 45 C-76 39.72 -76 34.44 -76 29 C-59.94347605 22.36096368 -43.81570132 15.90782479 -27.64581299 9.55023193 C-25.54644785 8.72422884 -23.44777431 7.89646587 -21.34979248 7.06695557 C-18.37059829 5.88976869 -15.38882674 4.71936689 -12.40625 3.55078125 C-11.5010965 3.1919133 -10.59594299 2.83304535 -9.6633606 2.46330261 C-8.41170609 1.9754705 -8.41170609 1.9754705 -7.13476562 1.4777832 C-6.40567993 1.19119339 -5.67659424 0.90460358 -4.92541504 0.60932922 C-3 0 -3 0 0 0 Z " fill="#F9F9F9" transform="translate(115,222)"/>
<path d="M0 0 C6.67825373 1.8990749 13.13342778 4.1077814 19.57421875 6.6953125 C20.45356079 7.04456284 21.33290283 7.39381317 22.2388916 7.75364685 C25.05661868 8.87364458 27.87204933 9.99929379 30.6875 11.125 C32.62196804 11.89491147 34.55662042 12.66435993 36.49145508 13.43334961 C40.27871045 14.93871992 44.065338 16.44565228 47.8515625 17.95361328 C54.28730734 20.51446648 60.73473168 23.04483984 67.1875 25.5625 C68.11715576 25.92553223 69.04681152 26.28856445 70.00463867 26.66259766 C72.00280265 27.44247469 74.00134248 28.22138869 76 29 C76 34.28 76 39.56 76 45 C74.64656494 45.52319824 73.29312988 46.04639648 71.89868164 46.58544922 C65.61925792 49.01350101 59.34077458 51.44397862 53.0625 53.875 C51.94197235 54.30873932 50.8214447 54.74247864 49.66696167 55.18936157 C35.93524056 60.50653038 22.20928897 65.83116342 8.58032227 71.40771484 C7.70947998 71.76172363 6.8386377 72.11573242 5.94140625 72.48046875 C5.21638916 72.77848389 4.49137207 73.07649902 3.74438477 73.38354492 C2 74 2 74 0 74 C0 69.05 0 64.1 0 59 C5.97462371 55.8968638 12.02105825 53.30960869 18.30078125 50.890625 C19.73806831 50.33311554 19.73806831 50.33311554 21.20439148 49.76434326 C23.21467922 48.98593725 25.22574493 48.20953766 27.23754883 47.43505859 C30.32309744 46.24591584 33.40479465 45.04715962 36.48632812 43.84765625 C38.44508811 43.09056502 40.40406494 42.33403455 42.36328125 41.578125 C43.28514725 41.21881897 44.20701324 40.85951294 45.15681458 40.48931885 C46.01167953 40.16187683 46.86654449 39.83443481 47.74731445 39.49707031 C48.87361015 39.06216278 48.87361015 39.06216278 50.0226593 38.61846924 C52 38 52 38 55 38 C55 37.34 55 36.68 55 36 C53.85688354 35.88301758 53.85688354 35.88301758 52.69067383 35.76367188 C47.52847718 34.69551344 42.83281007 32.73934405 37.94921875 30.78125 C36.89466995 30.36331177 35.84012115 29.94537354 34.75361633 29.51477051 C32.53278972 28.63325713 30.31309924 27.74887676 28.09448242 26.86181641 C24.68473082 25.49889312 21.2714192 24.14521699 17.85742188 22.79296875 C15.70030689 21.93543382 13.54339845 21.07737908 11.38671875 20.21875 C10.36076096 19.81144653 9.33480316 19.40414307 8.27775574 18.98449707 C6.86542412 18.41886047 6.86542412 18.41886047 5.42456055 17.84179688 C4.59216354 17.50950073 3.75976654 17.17720459 2.90214539 16.83483887 C1 16 1 16 0 15 C-0.07313567 12.46950598 -0.09247527 9.96695163 -0.0625 7.4375 C-0.05798828 6.72658203 -0.05347656 6.01566406 -0.04882812 5.28320312 C-0.03700864 3.52209987 -0.01907263 1.76103964 0 0 Z " fill="#F9F9F9" transform="translate(397,222)"/>
<path d="M0 0 C5.61 0 11.22 0 17 0 C17 42.9 17 85.8 17 130 C16.01 129.67 15.02 129.34 14 129 C14 87.42 14 45.84 14 3 C9.71 3 5.42 3 1 3 C1 20.16 1 37.32 1 55 C0.67 55 0.34 55 0 55 C0 36.85 0 18.7 0 0 Z " fill="#C9C9C9" transform="translate(352,191)"/>
<path d="M0 0 C0.33 0 0.66 0 1 0 C1 18.48 1 36.96 1 56 C-22.1 56 -45.2 56 -69 56 C-69 55.01 -69 54.02 -69 53 C-46.23 53 -23.46 53 0 53 C0 35.51 0 18.02 0 0 Z " fill="#272727" transform="translate(351,191)"/>
<path d="M0 0 C11.55 0 23.1 0 35 0 C35.66 1.65 36.32 3.3 37 5 C36.34 5.66 35.68 6.32 35 7 C34.505 5.02 34.505 5.02 34 3 C23.11 3 12.22 3 1 3 C1 20.49 1 37.98 1 56 C0.67 56 0.34 56 0 56 C0 37.52 0 19.04 0 0 Z " fill="#101010" transform="translate(160,265)"/>
<path d="M0 0 C5.28 0 10.56 0 16 0 C15.67 0.99 15.34 1.98 15 3 C10.38 3 5.76 3 1 3 C1 20.16 1 37.32 1 55 C0.67 55 0.34 55 0 55 C0 36.85 0 18.7 0 0 Z " fill="#F1F1F1" transform="translate(352,191)"/>
<path d="M0 0 C-0.99 0.33 -1.98 0.66 -3 1 C-3 1.66 -3 2.32 -3 3 C-4.65 3 -6.3 3 -8 3 C-8 2.34 -8 1.68 -8 1 C-3.375 -1.125 -3.375 -1.125 0 0 Z " fill="#1E1E1E" transform="translate(68,257)"/>
</svg>
